<svg id="visual" viewBox="0 0 960 540" width="960" height="540" xmlns="http://www.w3.org/2000/svg" xmlns:xlink="http://www.w3.org/1999/xlink" version="1.1"><path d="M0 388L32 396.7C64 405.3 128 422.7 192 428.8C256 435 320 430 384 416.8C448 403.7 512 382.3 576 386.3C640 390.3 704 419.7 768 421.7C832 423.7 896 398.3 928 385.7L960 373L960 541L928 541C896 541 832 541 768 541C704 541 640 541 576 541C512 541 448 541 384 541C320 541 256 541 192 541C128 541 64 541 32 541L0 541Z" fill="#fff" stroke-linecap="round" stroke-linejoin="miter"></path></svg>